<?xml version="1.0" encoding="utf-8"?>
<!-- Svg Vector Icons : http://www.onlinewebfonts.com/icon -->
<!DOCTYPE svg PUBLIC "-//W3C//DTD SVG 1.1//EN" "http://www.w3.org/Graphics/SVG/1.1/DTD/svg11.dtd">
<svg version="1.1" xmlns="http://www.w3.org/2000/svg" xmlns:xlink="http://www.w3.org/1999/xlink" x="0px" y="0px" fill="#fd6542" viewBox="0 0 1000 1000" enable-background="new 0 0 1000 1000" xml:space="preserve">
<metadata> Svg Vector Icons : http://www.onlinewebfonts.com/icon </metadata>
<g><path d="M114.1,242.7L114.1,242.7L500,628.6l385.9-385.9l0,0c12.3-12.2,27.6-18.4,42.9-18.4c33.7,0,61.2,27.6,61.2,61.2c0,18.4-6.1,33.7-18.4,42.9l0,0L542.9,757.3l0,0c-9.2,12.3-24.5,18.4-42.9,18.4s-33.7-6.1-42.9-18.4l0,0L28.4,328.5l0,0C16.1,319.3,10,304,10,285.6c0-33.7,27.6-61.2,61.3-61.2C89.6,224.4,104.9,230.5,114.1,242.7z"/></g>
</svg>